<svg width="196" height="56" viewBox="0 0 196 56" fill="none" xmlns="http://www.w3.org/2000/svg">
<g clip-path="url(#clip0_4_6)">
<path fill-rule="evenodd" clip-rule="evenodd" d="M194.167 9.996C193.481 9.17 192.558 8.764 191.331 8.764C190.105 8.764 189.142 9.198 188.469 10.108C187.81 10.99 187.467 12.306 187.467 14V26.432C185.937 24.682 184.354 23.436 182.732 22.596C181.73 22.078 180.543 21.7 179.211 21.518C178.432 21.42 177.654 21.364 176.784 21.364C172.748 21.364 169.477 22.834 166.971 25.802C164.492 28.742 163.252 32.844 163.252 38.094C163.252 40.572 163.569 42.896 164.202 45.024C164.835 47.138 165.732 49 166.945 50.596C168.158 52.164 169.622 53.382 171.271 54.264C172.919 55.118 174.726 55.552 176.691 55.552C177.588 55.552 178.446 55.468 179.224 55.314C179.765 55.23 180.239 55.076 180.754 54.922C181.993 54.488 183.154 53.858 184.209 53.06C185.304 52.234 186.372 51.184 187.467 49.882V50.708C187.467 52.262 187.836 53.438 188.561 54.292C189.313 55.118 190.236 55.552 191.331 55.552C192.479 55.552 193.402 55.146 194.101 54.362C194.8 53.536 195.196 52.346 195.196 50.722V13.552C195.156 12.012 194.826 10.794 194.167 9.996ZM185.95 44.31C185.251 45.878 184.275 47.068 183.128 47.838C181.941 48.608 180.648 48.972 179.211 48.972H179.184C177.747 48.972 176.467 48.566 175.267 47.782C174.08 46.956 173.13 45.766 172.445 44.17C171.759 42.574 171.429 40.614 171.429 38.346C171.429 36.176 171.746 34.272 172.405 32.676C173.038 31.052 173.961 29.792 175.122 28.91C176.309 28.014 177.628 27.594 179.131 27.594H179.211C180.622 27.594 181.901 28.028 183.101 28.882C184.288 29.736 185.238 30.968 185.937 32.564C186.636 34.16 186.979 36.12 186.979 38.346C187.005 40.726 186.662 42.714 185.95 44.31ZM160.311 44.674C159.797 44.212 159.124 43.974 158.267 43.974C157.488 43.974 156.935 44.184 156.499 44.52C155.484 45.5 154.653 46.298 154.02 46.872C153.387 47.418 152.688 47.95 151.91 48.468C151.184 48.958 150.38 49.35 149.575 49.546C148.744 49.784 147.874 49.91 146.898 49.91C146.674 49.91 146.489 49.91 146.291 49.882C145.078 49.798 143.93 49.448 142.915 48.804C141.701 48.062 140.752 46.97 140 45.556C139.301 44.086 138.905 42.378 138.879 40.474H154.838C156.974 40.474 158.623 40.138 159.797 39.55C160.984 38.906 161.564 37.534 161.564 35.42C161.564 33.124 160.984 30.884 159.836 28.686C158.689 26.488 157.014 24.696 154.706 23.324C152.424 21.938 149.707 21.266 146.515 21.266H146.278C143.917 21.294 141.754 21.7 139.842 22.484C137.824 23.31 136.149 24.472 134.738 25.97C133.406 27.496 132.337 29.316 131.625 31.458C130.913 33.6 130.53 35.924 130.53 38.388C130.53 43.68 131.994 47.824 134.883 50.918C137.626 53.83 141.411 55.384 146.252 55.538C146.515 55.566 146.805 55.566 147.096 55.566C149.351 55.566 151.395 55.258 153.163 54.642C154.93 54.026 156.394 53.256 157.554 52.318C158.715 51.366 159.599 50.386 160.153 49.378C160.733 48.37 161.023 47.474 161.023 46.718C161.102 45.808 160.838 45.122 160.311 44.674ZM141.306 29.26C142.598 27.818 144.273 27.09 146.304 27.09H146.331C148.441 27.09 150.169 27.79 151.461 29.204C152.754 30.618 153.532 32.788 153.69 35.672H138.919C139.196 32.844 139.974 30.702 141.306 29.26ZM125.651 43.96C124.846 43.96 124.292 44.17 123.857 44.506C122.854 45.486 122.01 46.284 121.377 46.858C120.744 47.404 120.072 47.936 119.293 48.454C118.542 48.944 117.764 49.336 116.933 49.532C116.128 49.77 115.231 49.896 114.255 49.896C114.031 49.896 113.846 49.896 113.649 49.868C112.435 49.784 111.288 49.434 110.272 48.79C109.085 48.048 108.109 46.956 107.41 45.542C106.659 44.072 106.289 42.364 106.263 40.46H122.195C124.305 40.46 125.954 40.124 127.154 39.536C128.315 38.892 128.908 37.52 128.908 35.406C128.908 33.11 128.354 30.87 127.207 28.672C126.059 26.474 124.371 24.682 122.076 23.31C119.795 21.924 117.051 21.252 113.886 21.252H113.622C111.261 21.28 109.125 21.686 107.186 22.47C105.168 23.296 103.493 24.458 102.108 25.956C100.75 27.482 99.6816 29.302 98.9694 31.444C98.244 33.586 97.8747 35.91 97.8747 38.374C97.8747 43.666 99.3519 47.81 102.253 50.904C104.997 53.816 108.769 55.37 113.596 55.524C113.886 55.552 114.15 55.552 114.44 55.552C116.722 55.552 118.74 55.244 120.507 54.628C122.274 54.012 123.738 53.242 124.886 52.304C126.073 51.352 126.93 50.372 127.51 49.364C128.09 48.356 128.381 47.46 128.381 46.704C128.381 45.85 128.117 45.178 127.602 44.716C127.154 44.184 126.442 43.96 125.651 43.96ZM108.637 29.26C109.929 27.818 111.604 27.09 113.635 27.09H113.662C115.772 27.09 117.5 27.79 118.792 29.204C120.098 30.618 120.863 32.788 121.048 35.672H106.263C106.553 32.844 107.358 30.702 108.637 29.26ZM17.7918 49.91V29.82C18.3458 29.876 18.8865 29.904 19.4141 29.904C22.065 29.904 24.5445 29.162 26.6548 27.874V49.924C26.6548 51.8 26.2459 53.2 25.415 54.124C24.5841 55.048 23.5158 55.51 22.1837 55.51C20.8912 55.51 19.8493 55.048 19.0316 54.096C18.2402 53.13 17.7918 51.772 17.7918 49.91ZM94.5116 9.996C93.8257 9.17 92.8893 8.764 91.6891 8.764C90.4494 8.764 89.4998 9.198 88.8271 10.108C88.1413 10.99 87.8248 12.306 87.8248 14V26.432C86.2949 24.682 84.7122 23.436 83.09 22.596C82.0744 22.078 80.9006 21.7 79.5949 21.518C78.8432 21.42 78.0386 21.364 77.1682 21.364C73.1324 21.364 69.8352 22.834 67.3557 25.802C64.8761 28.742 63.6364 32.844 63.6364 38.094C63.6364 40.572 63.9529 42.896 64.5596 45.024C65.1927 47.138 66.1159 49 67.3293 50.596C68.5426 52.164 70.0066 53.382 71.6552 54.264C73.3302 55.118 75.1107 55.552 77.0759 55.552C77.9463 55.552 78.8036 55.468 79.6081 55.314C80.1489 55.23 80.6237 55.076 81.138 54.922C82.3778 54.488 83.5384 53.858 84.5935 53.06C85.6882 52.234 86.7301 51.184 87.8512 49.882V50.708C87.8512 52.262 88.2205 53.438 88.9459 54.292C89.6449 55.118 90.6208 55.552 91.7155 55.552C92.8102 55.552 93.7598 55.146 94.4588 54.362C95.1578 53.536 95.5007 52.346 95.5007 50.722V13.552C95.4743 12.012 95.1578 10.794 94.5116 9.996ZM86.3213 44.31C85.6222 45.878 84.6463 47.068 83.4856 47.838C82.325 48.608 81.0061 48.972 79.5949 48.972H79.5685C78.131 48.972 76.8516 48.566 75.6514 47.782C74.4381 46.956 73.5149 45.766 72.829 44.17C72.1432 42.574 71.8135 40.614 71.8135 38.346C71.8135 36.176 72.13 34.272 72.7631 32.676C73.4225 31.052 74.3194 29.792 75.5064 28.91C76.667 28.014 78.0123 27.594 79.4894 27.594H79.5817C80.993 27.594 82.2723 28.028 83.4461 28.882C84.6595 29.736 85.6091 30.968 86.3081 32.564C86.9939 34.16 87.35 36.12 87.35 38.346C87.3632 40.726 86.9939 42.714 86.3213 44.31ZM39.6854 25.928V26.964C41.1493 25.004 42.6924 23.59 44.3674 22.652C46.0952 21.756 48.0339 21.28 50.2497 21.28C52.3863 21.28 54.3118 21.77 56 22.722C57.7014 23.674 58.9411 25.046 59.7589 26.824C60.3128 27.86 60.6557 28.994 60.8008 30.17C60.9459 31.332 61.0382 32.872 61.0382 34.734V50.358C61.0382 52.066 60.6557 53.326 59.8907 54.18C59.1654 55.062 58.163 55.496 56.976 55.496C55.7626 55.496 54.7866 55.062 54.0085 54.152C53.2304 53.27 52.8611 52.01 52.8611 50.358V36.358C52.8611 33.572 52.4918 31.458 51.74 29.988C51.0146 28.518 49.5111 27.776 47.269 27.776C45.805 27.776 44.4993 28.238 43.3123 29.12C42.1253 30.016 41.2285 31.234 40.6613 32.83C40.2789 34.09 40.081 36.414 40.081 39.872V50.372C40.081 52.094 39.6986 53.34 38.9204 54.208C38.1423 55.062 37.1663 55.496 35.9529 55.496C34.7659 55.496 33.8163 55.062 33.0382 54.152C32.26 53.27 31.8907 52.01 31.8907 50.358V26.068C31.8907 24.472 32.2336 23.254 32.9063 22.484C33.5657 21.686 34.489 21.266 35.676 21.266C36.375 21.266 37.008 21.42 37.5883 21.784C38.1686 22.148 38.6303 22.666 38.9996 23.352C39.5403 24.108 39.6854 24.948 39.6854 25.928ZM17.8446 1.778C23.3312 -0.266 29.6091 -0.154 34.2911 4.046C35.1616 4.9 36.1639 5.95 36.5464 7.224C37.0344 8.792 34.8978 7.07 34.5813 6.832C33.0514 5.796 31.5214 4.928 29.7937 4.326C20.5615 1.386 11.8173 6.692 6.38344 14.98C4.15452 18.62 2.66417 22.456 1.4508 26.684C1.3321 27.146 1.2134 27.748 0.962807 28.154C0.725407 28.616 0.870485 26.922 0.870485 26.838C1.06832 25.088 1.41123 23.408 1.82008 21.714C4.33916 12.726 9.87849 5.222 17.8446 1.778ZM28.488 17.962C28.488 21.784 25.5733 24.892 21.9727 24.892C18.3721 24.892 15.4574 21.798 15.4574 17.962C15.4574 14.126 18.3721 11.032 21.9727 11.032C25.5733 11.032 28.488 14.126 28.488 17.962Z" fill="#003A9B"/>
</g>
<defs>
<clipPath id="clip0_4_6">
<rect width="196" height="56" fill="white"/>
</clipPath>
</defs>
</svg>
