<svg width="24" height="24" viewBox="0 0 24 24" fill="none" xmlns="http://www.w3.org/2000/svg">
<path fill-rule="evenodd" clip-rule="evenodd" d="M5.108 4.867C5.825 4.77 6.703 4.753 7.759 4.751C7.82174 3.93446 8.19044 3.17171 8.79134 2.61531C9.39224 2.0589 10.1811 1.74986 11 1.75H13C13.8186 1.75009 14.607 2.05911 15.2077 2.61528C15.8084 3.17145 16.177 3.93381 16.24 4.75C17.297 4.753 18.175 4.77 18.892 4.867C19.792 4.987 20.55 5.247 21.152 5.848C21.754 6.45 22.012 7.208 22.134 8.108C22.25 8.975 22.25 10.078 22.25 11.445V15.555C22.25 16.922 22.25 18.025 22.134 18.892C22.012 19.792 21.754 20.55 21.152 21.152C20.55 21.754 19.792 22.012 18.892 22.134C18.025 22.25 16.922 22.25 15.555 22.25H8.445C7.078 22.25 5.975 22.25 5.108 22.134C4.208 22.012 3.45 21.754 2.848 21.152C2.246 20.55 1.988 19.792 1.867 18.892C1.75 18.025 1.75 16.922 1.75 15.555V11.445C1.75 10.078 1.75 8.975 1.867 8.108C1.987 7.208 2.247 6.45 2.848 5.848C3.45 5.246 4.208 4.988 5.108 4.867ZM14.732 4.75H9.268C9.32811 4.33351 9.53629 3.95263 9.85439 3.67714C10.1725 3.40165 10.5792 3.25001 11 3.25H13C13.4208 3.25001 13.8275 3.40165 14.1456 3.67714C14.4637 3.95263 14.6719 4.33351 14.732 4.75ZM5.308 20.647C4.574 20.548 4.186 20.367 3.909 20.091C3.632 19.814 3.452 19.426 3.353 18.691C3.252 17.936 3.25 16.935 3.25 15.5V12.13C6.938 13.678 9.092 14.524 11.36 14.63C11.786 14.65 12.214 14.65 12.64 14.63C14.908 14.524 17.062 13.678 20.75 12.13V15.5C20.75 16.935 20.748 17.936 20.647 18.692C20.548 19.426 20.367 19.814 20.091 20.091C19.814 20.368 19.426 20.548 18.691 20.647C17.936 20.748 16.935 20.75 15.5 20.75H8.5C7.065 20.75 6.063 20.748 5.308 20.647ZM20.748 10.503C16.623 12.238 14.639 13.035 12.57 13.131C12.19 13.149 11.81 13.149 11.43 13.131C9.36 13.035 7.377 12.238 3.252 10.503C3.257 9.58 3.277 8.875 3.353 8.308C3.452 7.574 3.633 7.186 3.909 6.909C4.186 6.632 4.574 6.452 5.309 6.353C6.063 6.252 7.065 6.25 8.5 6.25H15.5C16.935 6.25 17.936 6.252 18.692 6.353C19.426 6.452 19.814 6.633 20.091 6.909C20.368 7.186 20.548 7.574 20.647 8.309C20.723 8.875 20.743 9.579 20.748 10.503Z" fill="#006699"/>
</svg>
