<svg width="196" height="56" viewBox="0 0 196 56" fill="none" xmlns="http://www.w3.org/2000/svg">
<g clip-path="url(#clip0_4_10)">
<path d="M144.398 4.01154C144.398 1.79719 146.105 9.53674e-07 148.21 9.53674e-07H192.16C194.265 9.53674e-07 195.972 1.79719 195.972 4.01154V51.9892C195.972 54.2043 194.265 56 192.16 56H148.21C146.105 56 144.398 54.2043 144.398 51.9899V4.01154Z" fill="#006699"/>
<path d="M0.0266113 46.9083H21.5498V39.2833H7.81704V10.1956H0.0266113V46.9083ZM32.4469 46.9083V21.6213H24.6572V46.9083H32.4469ZM28.5527 18.1694C31.2687 18.1694 32.9595 16.2276 32.9595 13.7995C32.9091 11.3185 31.2687 9.43175 28.6045 9.43175C25.9396 9.43175 24.197 11.3193 24.197 13.7995C24.197 16.2276 25.8878 18.1694 28.5017 18.1694H28.5527ZM36.0634 46.9083H43.8531V32.7864C43.8531 32.0306 43.9035 31.2749 44.1098 30.7365C44.672 29.2265 45.9537 27.6622 48.106 27.6622C50.9254 27.6622 52.0533 29.9815 52.0533 33.3791V46.9076H59.8417V32.4089C59.8417 24.6414 55.9986 21.0272 50.873 21.0272C46.6712 21.0272 44.8258 23.5617 43.8007 25.2884H43.8531V21.6213H36.0634C36.1662 23.9943 36.0634 46.9083 36.0634 46.9083ZM70.8314 10.1956H63.0416V46.9083H70.8314V38.7097L72.7781 36.0649L78.8771 46.9083H88.4597L78.2113 31.211L87.1787 20.5322H77.8016C77.8016 20.5322 71.3957 30.0858 70.8314 31.2198V10.1956Z" fill="black"/>
<path d="M109.291 36.3602C109.394 35.7109 109.547 34.4653 109.547 33.0567C109.547 26.5201 106.472 19.8836 98.3754 19.8836C89.7144 19.8836 85.7167 27.2744 85.7167 33.9777C85.7167 42.2681 90.5857 47.4452 99.0922 47.4452C102.475 47.4452 105.6 46.9076 108.164 45.7743L107.139 40.2234C105.037 40.9755 102.884 41.3522 100.22 41.3522C96.5818 41.3522 93.4051 39.7401 93.1484 36.3058L109.291 36.3587V36.3602ZM93.0974 30.6741C93.3023 28.5163 94.6357 25.3325 97.9663 25.3325C101.502 25.3325 102.323 28.7315 102.323 30.6741H93.0974ZM128.775 10.1956V22.9044H128.672C127.544 21.1256 125.187 19.9387 122.063 19.9387C116.066 19.9387 110.788 25.1166 110.838 33.9622C110.838 42.1616 115.605 47.5017 121.549 47.5017C124.778 47.5017 127.852 45.9902 129.39 43.0774H129.543L129.852 46.9083H136.769C136.667 45.128 136.564 42.0536 136.564 39.0328V10.1948H128.774L128.775 10.1956ZM128.775 35.2034C128.775 35.8498 128.724 36.4983 128.62 37.0359C128.161 39.3567 126.315 40.9732 124.06 40.9732C120.833 40.9732 118.731 38.1691 118.731 33.7463C118.731 29.5937 120.526 26.2491 124.112 26.2491C126.52 26.2491 128.211 28.0286 128.673 30.2393C128.775 30.7263 128.775 31.2661 128.775 31.7508V35.2034Z" fill="black"/>
<path d="M160.032 46.8774V21.5905H152.242V46.8774H160.032ZM156.138 18.1386C158.854 18.1386 160.545 16.1967 160.545 13.7701C160.494 11.2884 158.854 9.4009 156.19 9.4009C153.524 9.4009 151.783 11.2884 151.783 13.7701C151.783 16.1967 153.473 18.1386 156.087 18.1386H156.138H156.138ZM164.343 46.8774H172.132V32.7577C172.132 32.0027 172.183 31.2462 172.389 30.7072C172.952 29.1964 174.234 27.6328 176.386 27.6328C179.204 27.6328 180.332 29.9514 180.332 33.3512V46.8774H188.121V32.3788C188.121 24.612 184.278 20.9978 179.154 20.9978C174.952 20.9978 173.106 23.5316 172.081 25.2576H172.133V21.5912H164.344C164.445 23.9635 164.343 46.8774 164.343 46.8774Z" fill="white"/>
</g>
<defs>
<clipPath id="clip0_4_10">
<rect width="196" height="56" fill="white"/>
</clipPath>
</defs>
</svg>
