<svg width="24" height="24" viewBox="0 0 24 24" fill="none" xmlns="http://www.w3.org/2000/svg">
<path d="M21.75 23.8125H2.25C2.0625 23.8125 1.875 23.6625 1.875 23.4375V17.7C1.875 16.1625 2.775 14.775 4.2 14.1375C5.625 13.5 7.05 13.05 8.4375 12.75C8.5875 12.7125 8.775 12.7875 8.85 12.9375L12 19.6125L15.15 12.975C15.225 12.825 15.375 12.75 15.5625 12.7875C16.95 13.0875 18.375 13.5375 19.8 14.175C21.225 14.8125 22.125 16.2 22.125 17.7375V23.475C22.125 23.6625 21.9375 23.8125 21.75 23.8125ZM2.5875 23.1H21.375V17.7C21.375 16.4625 20.625 15.3 19.4625 14.775C18.1875 14.2125 16.9125 13.7625 15.675 13.5L12.3 20.55C12.225 20.6625 12.1125 20.7375 11.9625 20.7375C11.8125 20.7375 11.7 20.6625 11.625 20.55L8.25 13.5C7.0125 13.7625 5.7 14.2125 4.4625 14.775C3.3 15.3 2.55 16.425 2.55 17.7V23.1H2.5875Z" fill="#006699"/>
<path d="M12.825 14.925H11.1375C10.9875 14.925 10.8375 14.8125 10.8 14.6625L10.425 13.0875C10.3875 12.975 10.425 12.8625 10.5 12.7875C10.575 12.7125 10.6875 12.6375 10.8 12.6375H13.2375C13.35 12.6375 13.4625 12.675 13.5375 12.7875C13.6125 12.8625 13.6125 12.975 13.6125 13.0875L13.2375 14.6625C13.1625 14.8125 13.0125 14.925 12.825 14.925ZM11.4375 14.2125H12.5625L12.7875 13.35H11.25L11.4375 14.2125Z" fill="#006699"/>
<path d="M13.275 18.1125C13.0875 18.1125 12.9375 17.9625 12.9 17.775L12.4875 14.625C12.45 14.4375 12.6 14.25 12.7875 14.2125C12.975 14.175 13.1625 14.325 13.2 14.5125L13.65 17.6625V17.7C13.65 17.925 13.5 18.1125 13.275 18.1125ZM10.725 18.1125C10.5375 18.1125 10.35 17.9625 10.35 17.7375V17.7L10.8 14.55C10.8375 14.3625 11.025 14.2125 11.2125 14.25C11.4 14.2875 11.55 14.475 11.5125 14.6625L11.0625 17.8125C11.0625 17.9625 10.9125 18.1125 10.725 18.1125ZM18.15 23.8125C17.9625 23.8125 17.775 23.6625 17.775 23.4375V19.125C17.775 18.9375 17.925 18.75 18.15 18.75C18.3375 18.75 18.525 18.9 18.525 19.125V23.475C18.525 23.6625 18.3375 23.8125 18.15 23.8125ZM5.85 23.8125C5.6625 23.8125 5.475 23.6625 5.475 23.4375V19.125C5.475 18.9375 5.625 18.75 5.85 18.75C6.0375 18.75 6.225 18.9 6.225 19.125V23.475C6.1875 23.6625 6.0375 23.8125 5.85 23.8125Z" fill="#006699"/>
<path d="M12 11.9625C9.525 11.9625 7.125 8.62499 7.125 5.17499C7.125 2.13749 9.0375 0.149994 12 0.149994C14.9625 0.149994 16.875 2.09999 16.875 5.17499C16.875 8.62499 14.475 11.9625 12 11.9625ZM12 0.899994C9.975 0.899994 7.8375 2.02499 7.8375 5.17499C7.8375 8.17499 9.9375 11.25 12 11.25C14.0625 11.25 16.1625 8.17499 16.1625 5.17499C16.1625 2.02499 14.025 0.899994 12 0.899994Z" fill="#006699"/>
<path d="M13.3875 4.95C12.75 4.95 12.1875 4.8375 11.7 4.575C11.2125 4.35 10.875 4.0125 10.65 3.7875C10.0125 4.5 8.85 5.025 7.4625 4.8375C7.275 4.8 7.125 4.65 7.1625 4.425C7.2 4.2375 7.3875 4.0875 7.575 4.125C9 4.3125 10.05 3.6 10.35 3C10.425 2.8875 10.5375 2.8125 10.6875 2.8125C10.8375 2.8125 10.95 2.8875 11.025 3.0375C11.0625 3.15 12.225 5.4 16.2375 3.525C16.425 3.45 16.6125 3.525 16.725 3.7125C16.8 3.9 16.725 4.0875 16.5375 4.2C15.375 4.6875 14.325 4.95 13.3875 4.95Z" fill="#006699"/>
</svg>
