<svg width="24" height="24" viewBox="0 0 24 24" fill="none" xmlns="http://www.w3.org/2000/svg">
<path d="M22.7073 21.293L17.032 15.6178C18.3089 14.0241 19.0032 12.0421 19 10C19 5.0295 14.9707 1 10 1C5.0295 1 1 5.0295 1 10C1 14.9705 5.0295 19 10 19C12.125 19 14.078 18.2635 15.6178 17.0317L21.293 22.707C21.3857 22.8 21.4959 22.8738 21.6173 22.924C21.7386 22.9743 21.8687 23.0001 22 23C22.1978 23 22.3911 22.9414 22.5556 22.8315C22.72 22.7216 22.8482 22.5655 22.9239 22.3828C22.9996 22.2001 23.0194 21.999 22.9808 21.805C22.9423 21.6111 22.8471 21.4329 22.7073 21.293ZM10 17C6.134 17 3 13.866 3 10C3 6.134 6.134 3 10 3C13.8663 3 17 6.134 17 10C17 13.866 13.8663 17 10 17Z" fill="#006699"/>
</svg>
